<svg width="901" height="241" viewBox="0 0 901 241" fill="none" xmlns="http://www.w3.org/2000/svg">
<rect x="18.7457" y="52.943" width="108.309" height="108.309" stroke="#E7E6E9" stroke-width="37.4914"/>
<rect width="43.74" height="43.74" transform="matrix(-1 0 0 1 204.115 136.261)" fill="#E7E6E9"/>
<rect width="43.74" height="43.74" rx="21.87" transform="matrix(-1 0 0 1 94.7686 85.2285)" fill="#E7E6E9"/>
<path d="M357.421 180C356.05 180 355.364 179.315 355.364 177.944V176.916C355.364 175.545 356.05 174.859 357.421 174.859C366.503 174.174 369.759 168.776 367.188 158.666L355.621 123.451H305.242L294.703 158.923C293.503 164.578 293.932 168.605 295.988 171.004C298.045 173.231 301.986 174.516 307.812 174.859C309.183 174.859 309.868 175.545 309.868 176.916V177.944C309.868 179.315 309.183 180 307.812 180H268.742C267.371 180 266.686 179.315 266.686 177.944V176.916C266.686 175.545 267.371 174.859 268.742 174.859C278.167 174.174 284.593 168.69 288.02 158.409L334.801 2.38534C335.487 0.843102 336.515 0.0719818 337.886 0.0719818H338.143C339.514 0.0719818 340.456 0.757423 340.97 2.12831L393.406 158.409C395.463 164.235 397.776 168.433 400.346 171.004C402.917 173.403 406.515 174.688 411.142 174.859C412.513 174.859 413.198 175.545 413.198 176.916V177.944C413.198 179.315 412.513 180 411.142 180H357.421ZM307.041 117.025H353.565L329.146 42.4836L307.041 117.025ZM402.363 180C400.992 180 400.306 179.229 400.306 177.687V177.173C400.306 175.63 400.992 174.859 402.363 174.859C407.846 174.516 411.702 172.546 413.929 168.947C416.157 165.177 417.271 159.265 417.271 151.212V68.9587L407.76 71.015C406.904 71.1864 406.218 70.9294 405.704 70.2439C405.19 69.5585 405.019 68.7874 405.19 67.9306C405.533 67.0738 406.218 66.474 407.246 66.1313C420.784 61.6759 431.151 55.764 438.348 48.3955C439.034 47.5387 439.805 47.196 440.662 47.3673C441.518 47.5387 441.947 48.1385 441.947 49.1666V71.2721C459.254 55.6783 473.134 47.9671 483.587 48.1385C498.667 48.3098 507.578 56.3637 510.319 72.3002C528.312 56.021 542.621 47.9671 553.245 48.1385C562.841 48.3098 569.867 51.48 574.322 57.649C578.778 63.8179 581.091 73.5854 581.262 86.9515V87.2085V87.7226L581.005 154.553C581.348 161.236 582.633 166.206 584.861 169.461C587.089 172.717 590.773 174.516 595.914 174.859C597.285 174.859 597.97 175.63 597.97 177.173V177.687C597.97 179.229 597.285 180 595.914 180H541.678C540.307 180 539.622 179.229 539.622 177.687V177.173C539.622 175.63 540.307 174.859 541.678 174.859C547.162 174.516 551.017 172.546 553.245 168.947C555.473 165.177 556.587 159.265 556.587 151.212V91.3212C556.587 74.0138 552.731 64.589 545.02 63.0468C537.48 61.3332 526.256 66.8167 511.348 79.4973C511.519 81.0396 511.605 83.5243 511.605 86.9515V87.2085V87.7226L511.348 154.553C511.69 161.236 512.975 166.206 515.203 169.461C517.431 172.717 521.115 174.516 526.256 174.859C527.627 174.859 528.312 175.63 528.312 177.173V177.687C528.312 179.229 527.627 180 526.256 180H472.02C470.65 180 469.964 179.229 469.964 177.687V177.173C469.964 175.63 470.65 174.859 472.02 174.859C477.504 174.516 481.36 172.546 483.587 168.947C485.815 165.177 486.929 159.265 486.929 151.212V91.3212C486.929 74.1852 483.073 64.7604 475.362 63.0468C467.822 61.3332 456.684 66.731 441.947 79.2403V151.212C441.947 159.265 443.061 165.177 445.288 168.947C447.516 172.546 451.372 174.516 456.855 174.859C458.226 174.859 458.911 175.63 458.911 177.173V177.687C458.911 179.229 458.226 180 456.855 180H402.363ZM676.006 183.342C664.182 183.342 657.842 176.83 656.985 163.806C649.445 176.83 638.05 183.342 622.799 183.342C612.517 183.342 604.549 179.914 598.894 173.06C593.41 166.034 591.525 157.209 593.239 146.585C595.295 134.59 601.636 124.394 612.26 115.997C622.884 107.429 637.793 101.946 656.985 99.5465V83.0959C656.985 73.8425 655.186 66.5597 651.587 61.2475C648.16 55.764 643.619 53.0222 637.964 53.0222C630.767 53.0222 625.712 54.8215 622.799 58.4201C620.057 62.0186 620.228 65.7886 623.313 69.7298C626.911 75.5561 627.425 80.7826 624.855 85.4093C622.284 89.8646 618.429 92.0923 613.288 92.0923C606.776 92.0923 602.492 88.9222 600.436 82.5818C598.551 76.2415 600.008 69.6442 604.806 62.7897C611.831 52.8509 622.884 47.8814 637.964 47.8814C652.358 47.8814 663.239 51.737 670.608 59.4482C678.148 67.1594 681.918 78.1265 681.918 92.3494V163.035C681.918 167.833 682.603 170.832 683.974 172.032C685.516 173.231 687.23 172.974 689.115 171.261C691 169.376 692.713 166.805 694.256 163.549C694.77 162.521 695.627 162.007 696.826 162.007H697.34C699.054 162.007 699.568 162.778 698.882 164.321C693.742 177.001 686.116 183.342 676.006 183.342ZM618.686 153.011C618.686 161.407 621.171 167.148 626.14 170.232C631.109 173.317 636.679 173.317 642.848 170.232C649.188 166.977 653.9 161.579 656.985 154.039V104.173C631.452 109.314 618.686 125.593 618.686 153.011ZM710.859 238.862C704.004 239.719 697.407 238.262 691.067 234.492C684.898 230.723 680.871 225.153 678.986 217.785C677.101 210.759 677.272 204.676 679.5 199.535C681.899 194.394 685.926 191.481 691.581 190.796C698.092 189.939 702.719 192.595 705.461 198.764C708.374 205.104 706.918 211.102 701.091 216.757C695.95 221.555 694.494 225.667 696.722 229.095C699.121 232.522 703.833 233.721 710.859 232.693C719.941 231.322 727.481 221.383 733.478 202.877L740.675 180.257L699.549 73.3284L700.063 74.8706C696.807 67.6735 693.894 62.9611 691.324 60.7334C688.925 58.3344 684.726 56.9635 678.729 56.6208C676.844 56.6208 675.901 55.764 675.901 54.0504C675.901 52.3368 676.844 51.48 678.729 51.48H736.049C737.934 51.48 738.876 52.3368 738.876 54.0504C738.876 55.764 737.934 56.6208 736.049 56.6208C729.88 56.9635 726.11 58.2487 724.739 60.4764C723.368 62.5327 723.454 66.3883 724.996 72.0432L752.242 144.528L775.633 72.5573L775.376 72.8143C776.918 66.6454 776.918 62.5327 775.376 60.4764C773.834 58.2487 769.464 57.0492 762.267 56.8778C760.382 56.8778 759.439 55.9353 759.439 54.0504C759.439 52.3368 760.382 51.48 762.267 51.48H803.136C805.021 51.48 805.964 52.3368 805.964 54.0504C805.964 55.9353 805.021 56.8778 803.136 56.8778C797.31 57.2205 793.112 58.3344 790.541 60.2194C787.971 61.9329 785.657 65.2745 783.601 70.2439L740.932 202.877C733.564 225.325 723.539 237.32 710.859 238.862ZM872.591 183.342C860.767 183.342 854.427 176.83 853.57 163.806C846.03 176.83 834.635 183.342 819.384 183.342C809.102 183.342 801.134 179.914 795.479 173.06C789.996 166.034 788.111 157.209 789.824 146.585C791.881 134.59 798.221 124.394 808.845 115.997C819.47 107.429 834.378 101.946 853.57 99.5465V83.0959C853.57 73.8425 851.771 66.5597 848.172 61.2475C844.745 55.764 840.204 53.0222 834.549 53.0222C827.352 53.0222 822.297 54.8215 819.384 58.4201C816.642 62.0186 816.814 65.7886 819.898 69.7298C823.497 75.5561 824.011 80.7826 821.44 85.4093C818.87 89.8646 815.014 92.0923 809.873 92.0923C803.362 92.0923 799.078 88.9222 797.021 82.5818C795.136 76.2415 796.593 69.6442 801.391 62.7897C808.417 52.8509 819.47 47.8814 834.549 47.8814C848.944 47.8814 859.825 51.737 867.193 59.4482C874.733 67.1594 878.503 78.1265 878.503 92.3494V163.035C878.503 167.833 879.189 170.832 880.559 172.032C882.102 173.231 883.815 172.974 885.7 171.261C887.585 169.376 889.299 166.805 890.841 163.549C891.355 162.521 892.212 162.007 893.411 162.007H893.926C895.639 162.007 896.153 162.778 895.468 164.321C890.327 177.001 882.701 183.342 872.591 183.342ZM815.271 153.011C815.271 161.407 817.756 167.148 822.725 170.232C827.695 173.317 833.264 173.317 839.433 170.232C845.773 166.977 850.486 161.579 853.57 154.039V104.173C828.038 109.314 815.271 125.593 815.271 153.011Z" fill="#E7E6E9"/>
</svg>
